<svg width="189" height="49" viewBox="0 0 189 49" fill="none" xmlns="http://www.w3.org/2000/svg">
<g clip-path="url(#clip0_302_8)">
<path d="M64.69 31.9116C64.8719 32.0896 64.9813 32.3263 64.9978 32.5775C65.0144 32.8287 64.9369 33.0772 64.78 33.2766C61.0069 38.1617 56.1283 42.1239 50.5275 44.852C44.9266 47.5802 38.7559 49 32.5 49C26.2441 49 20.0734 47.5802 14.4726 44.852C8.87167 42.1239 3.99311 38.1617 0.220035 33.2766C0.0630782 33.0772 -0.0143584 32.8287 0.00219699 32.5775C0.0187524 32.3263 0.128174 32.0896 0.310002 31.9116L8.08366 24.3014C8.19456 24.1934 8.32851 24.1109 8.47589 24.0597C8.62328 24.0085 8.78043 23.9899 8.93603 24.0052C9.09163 24.0206 9.24183 24.0695 9.37581 24.1485C9.50979 24.2275 9.62421 24.3345 9.71088 24.462C11.925 27.6588 14.8118 30.3551 18.1778 32.37C22.4906 34.942 27.4433 36.3025 32.4934 36.3025C37.5435 36.3025 42.4962 34.942 46.809 32.37C50.1749 30.3561 53.0617 27.6606 55.2759 24.4646C55.3626 24.3371 55.477 24.23 55.611 24.1511C55.745 24.0721 55.8952 24.0232 56.0508 24.0078C56.2064 23.9925 56.3635 24.0111 56.5109 24.0623C56.6583 24.1135 56.7922 24.196 56.9031 24.304L64.69 31.9116Z" fill="url(#paint0_linear_302_8)"></path>
<path d="M49.6944 16.6923C49.859 16.8563 49.9639 17.0705 49.9922 17.3008C50.0206 17.531 49.9708 17.7641 49.8509 17.963L49.3763 18.7425C47.7199 21.452 45.4365 23.7268 42.717 25.3765L41.9348 25.8494C41.7353 25.9699 41.5011 26.0203 41.2695 25.9925C41.0379 25.9648 40.8223 25.8604 40.6572 25.6961L33.2314 18.2956C33.0358 18.1012 32.7709 17.992 32.4948 17.992C32.2186 17.992 31.9537 18.1012 31.7582 18.2956L24.3323 25.6961C24.1673 25.8604 23.9517 25.9648 23.7201 25.9925C23.4885 26.0203 23.2542 25.9699 23.0547 25.8494L22.2725 25.3765C19.5572 23.7315 17.2779 21.4609 15.6263 18.7555L15.1491 17.976C15.0292 17.7771 14.9794 17.544 15.0078 17.3138C15.0361 17.0835 15.1409 16.8693 15.3056 16.7053L31.7634 0.303545C31.9589 0.109163 32.2238 0 32.5 0C32.7762 0 33.0411 0.109163 33.2366 0.303545L41.5359 8.56938L49.6944 16.6923Z" fill="url(#paint1_linear_302_8)"></path>
<path d="M78.555 32.9943C78.4674 32.9931 78.3814 32.971 78.3036 32.9298C78.2259 32.8887 78.1587 32.8296 78.1073 32.7573C78.0558 32.6849 78.0217 32.6014 78.0075 32.5132C77.9933 32.4251 77.9994 32.3348 78.0254 32.2494L83.6424 15.8513C83.7097 15.6345 83.831 15.4393 83.9946 15.2848C84.0982 15.1875 84.2198 15.1124 84.3522 15.0637C84.4846 15.0151 84.6252 14.9939 84.7658 15.0015H90.2337C90.3743 14.9941 90.5149 15.0153 90.6473 15.0639C90.7797 15.1126 90.9013 15.1876 91.0049 15.2848C91.1675 15.4401 91.2887 15.6351 91.3571 15.8513L96.9741 32.2494C96.9926 32.3079 97.0013 32.3691 96.9998 32.4304C96.9985 32.58 96.9395 32.723 96.8356 32.8286C96.7317 32.9341 96.5912 32.9937 96.4446 32.9943H91.8044C91.6808 33.0064 91.556 32.9934 91.4373 32.956C91.3186 32.9187 91.2084 32.8577 91.1129 32.7766C90.9871 32.6581 90.8879 32.5132 90.8224 32.3517L90.2183 30.6574H84.8121L84.208 32.3517C84.1436 32.5106 84.0493 32.6549 83.9303 32.7766C83.8333 32.8595 83.721 32.9215 83.5999 32.9589C83.4789 32.9963 83.3517 33.0084 83.2259 32.9943H78.555ZM86.0871 25.6503H88.9252L87.4908 20.8688L86.0871 25.6503Z" fill="#434343"></path>
<path d="M100.706 33C100.613 33.0007 100.521 32.983 100.436 32.9478C100.35 32.9127 100.273 32.8608 100.208 32.7953C100.141 32.7323 100.088 32.6564 100.053 32.5725C100.017 32.4886 99.999 32.3983 100 32.3073V15.6972C99.999 15.6062 100.017 15.516 100.053 15.4321C100.088 15.3481 100.141 15.2723 100.208 15.2092C100.272 15.1434 100.35 15.0912 100.436 15.0555C100.521 15.0199 100.613 15.0017 100.706 15.002H108.227C109.728 14.9738 111.22 15.246 112.611 15.8022C113.846 16.3001 114.917 17.1235 115.707 18.1818C116.513 19.3206 116.945 20.6745 116.947 22.0621C116.982 22.8002 117 23.4474 117 24.0036C117 24.5598 116.982 25.1903 116.947 25.8952C116.877 27.5061 116.478 28.8389 115.747 29.8936C115.01 30.9506 113.968 31.7651 112.755 32.2313C111.352 32.7623 109.857 33.0199 108.355 32.9895L100.706 33ZM106.529 27.9863H108.227C108.583 27.993 108.936 27.9185 109.258 27.7685C109.569 27.6185 109.828 27.3811 110.002 27.0864C110.209 26.7265 110.318 26.3195 110.316 25.9057C110.351 25.4072 110.372 24.9612 110.383 24.5677C110.393 24.1741 110.383 23.7806 110.383 23.3713C110.383 22.962 110.351 22.537 110.316 22.0595C110.281 21.3406 110.05 20.8159 109.623 20.4853C109.186 20.1554 108.647 19.9823 108.096 19.9947H106.529V27.9863Z" fill="#434343"></path>
<path d="M120.687 32.9954C120.597 32.9964 120.508 32.9788 120.425 32.9436C120.342 32.9085 120.267 32.8565 120.205 32.7909C120.139 32.7284 120.087 32.6527 120.052 32.5687C120.017 32.4848 119.999 32.3943 120 32.303V15.6992C119.999 15.608 120.017 15.5175 120.052 15.4335C120.087 15.3495 120.139 15.2739 120.205 15.2114C120.267 15.1454 120.342 15.093 120.425 15.0574C120.508 15.0218 120.597 15.0037 120.687 15.0042H124.698C124.83 14.992 124.963 15.0064 125.089 15.0464C125.216 15.0865 125.333 15.1515 125.434 15.2376C125.549 15.3453 125.652 15.4658 125.74 15.5969L130.032 22.7147V15.6992C130.031 15.608 130.048 15.5175 130.083 15.4335C130.119 15.3495 130.171 15.2739 130.236 15.2114C130.299 15.1454 130.373 15.093 130.456 15.0574C130.539 15.0218 130.628 15.0037 130.718 15.0042H135.316C135.406 15.0041 135.495 15.0224 135.578 15.058C135.661 15.0936 135.735 15.1458 135.798 15.2114C135.863 15.2744 135.914 15.3502 135.949 15.4341C135.984 15.518 136.001 15.6082 136 15.6992V32.303C136.001 32.394 135.984 32.4842 135.949 32.5681C135.914 32.652 135.863 32.7278 135.798 32.7909C135.735 32.8561 135.66 32.9078 135.577 32.943C135.495 32.9782 135.406 32.996 135.316 32.9954H131.302C131.169 33.0085 131.035 32.9935 130.908 32.9515C130.782 32.9096 130.665 32.8415 130.566 32.7515C130.413 32.5889 130.306 32.4735 130.26 32.4053L125.968 25.8488V32.3004C125.969 32.3914 125.952 32.4816 125.917 32.5655C125.882 32.6494 125.831 32.7252 125.766 32.7882C125.704 32.8535 125.629 32.9052 125.546 32.9404C125.463 32.9755 125.374 32.9934 125.284 32.9928L120.687 32.9954Z" fill="#434343"></path>
<path d="M140.733 32.9869C140.637 32.9879 140.542 32.9703 140.454 32.9351C140.365 32.8999 140.285 32.8479 140.219 32.7822C140.149 32.7197 140.093 32.644 140.055 32.56C140.018 32.476 139.999 32.3854 140 32.2942V15.6824C139.999 15.5911 140.018 15.5006 140.055 15.4166C140.093 15.3326 140.149 15.2569 140.219 15.1944C140.286 15.1308 140.367 15.0808 140.455 15.0474C140.543 15.014 140.638 14.998 140.733 15.0002H146.267C146.46 15.0036 146.645 15.0779 146.781 15.2076C146.918 15.3373 146.996 15.5122 147 15.6955V32.3073C146.997 32.4906 146.919 32.6656 146.782 32.795C146.645 32.9244 146.46 32.998 146.267 33L140.733 32.9869Z" fill="#434343"></path>
<path d="M151.696 32.9921C151.605 32.9927 151.514 32.9748 151.43 32.9397C151.346 32.9045 151.269 32.8528 151.206 32.7875C151.14 32.7245 151.087 32.6487 151.052 32.5648C151.017 32.4809 150.999 32.3907 151 32.2997V15.6964C150.999 15.6054 151.017 15.5152 151.052 15.4313C151.087 15.3474 151.14 15.2716 151.206 15.2086C151.269 15.143 151.345 15.0908 151.43 15.0552C151.514 15.0196 151.604 15.0013 151.696 15.0014H156.631C156.723 15.0011 156.814 15.0193 156.899 15.0549C156.984 15.0905 157.06 15.1428 157.124 15.2086C157.19 15.2716 157.242 15.3474 157.278 15.4313C157.313 15.5152 157.331 15.6054 157.33 15.6964V20.7841L160.248 15.5679C160.348 15.4176 160.475 15.2869 160.623 15.1824C160.817 15.053 161.048 14.9896 161.282 15.0014H166.992C167.142 15.0034 167.286 15.0638 167.392 15.1696C167.499 15.2754 167.559 15.4183 167.561 15.5679C167.563 15.6678 167.535 15.7661 167.482 15.8511L162.832 23.6112L167.923 32.145C167.979 32.2284 168.006 32.328 167.999 32.4283C167.999 32.5778 167.939 32.7212 167.833 32.827C167.727 32.9327 167.582 32.9921 167.432 32.9921H161.54C161.403 33.004 161.265 32.9886 161.134 32.9467C161.003 32.9048 160.882 32.8373 160.778 32.7482C160.665 32.6461 160.566 32.5297 160.483 32.402L157.319 26.8003V32.3076C157.32 32.3986 157.303 32.4888 157.267 32.5727C157.232 32.6566 157.18 32.7324 157.114 32.7954C157.05 32.8608 156.973 32.9127 156.888 32.9478C156.803 32.983 156.712 33.0007 156.621 33L151.696 32.9921Z" fill="#434343"></path>
<path d="M170.555 33C170.467 32.9987 170.381 32.9766 170.304 32.9355C170.226 32.8943 170.159 32.8353 170.107 32.763C170.056 32.6906 170.022 32.6071 170.007 32.5189C169.993 32.4308 169.999 32.3405 170.025 32.2552L175.642 15.8591C175.708 15.6392 175.831 15.4411 175.996 15.2847C176.1 15.1875 176.221 15.1124 176.354 15.0637C176.486 15.0151 176.627 14.9939 176.767 15.0015H182.235C182.375 14.9941 182.516 15.0153 182.648 15.0639C182.781 15.1126 182.902 15.1876 183.006 15.2847C183.168 15.44 183.289 15.635 183.358 15.8512L188.974 32.2473C188.993 32.3058 189.001 32.3669 189 32.4283C188.998 32.5779 188.939 32.7209 188.836 32.8264C188.732 32.9319 188.591 32.9915 188.445 32.9921H183.785C183.661 33.0042 183.536 32.9912 183.418 32.9538C183.299 32.9165 183.189 32.8555 183.093 32.7745C182.967 32.656 182.868 32.511 182.803 32.3496L182.199 30.6554H176.783L176.179 32.3496C176.114 32.5084 176.02 32.6528 175.901 32.7745C175.804 32.8573 175.692 32.9193 175.571 32.9567C175.45 32.9941 175.323 33.0062 175.197 32.9921L170.555 33ZM178.086 25.6569H180.931L179.497 20.876L178.086 25.6569Z" fill="#434343"></path>
</g>
<defs>
<linearGradient id="paint0_linear_302_8" x1="0.00836007" y1="36.4963" x2="64.9969" y2="36.4963" gradientUnits="userSpaceOnUse">
<stop stop-color="#ED1C24"></stop>
<stop offset="1" stop-color="#FBB03B"></stop>
</linearGradient>
<linearGradient id="paint1_linear_302_8" x1="14.9849" y1="12.9946" x2="49.9865" y2="12.9946" gradientUnits="userSpaceOnUse">
<stop stop-color="#ED1C24"></stop>
<stop offset="1" stop-color="#FBB03B"></stop>
</linearGradient>
<clipPath id="clip0_302_8">
<rect width="189" height="49" fill="white"></rect>
</clipPath>
</defs>
</svg>