<?xml version="1.0" encoding="UTF-8"?>
<svg xmlns="http://www.w3.org/2000/svg" viewBox="120 -20 920 420" version="1.1">
  <!-- Arabland "ARE" monogram extracted from arabland-logo-dark.svg
       Gold chevron "A" + graphite "RE" — wordmark + tagline cropped out. -->

  <!-- Graphite "RE" letterforms -->
  <g fill="#231f20">
    <path d="M 756.51 0.00 L 888.29 0.00 C 893.15 0.81 898.09 0.45 902.99 0.49 C 940.91 0.52 978.83 0.69 1016.75 0.77 C 1016.65 22.34 1016.93 43.91 1016.61 65.48 C 943.76 65.23 870.91 65.46 798.05 65.37 C 789.83 40.60 775.40 18.00 756.51 0.00 Z"/>
    <path d="M 463.25 0.56 C 525.48 0.52 587.71 0.49 649.93 0.58 C 681.53 3.05 713.05 16.88 733.61 41.47 C 745.04 55.08 752.68 71.61 756.73 88.85 C 762.45 113.10 762.71 139.01 754.88 162.83 C 743.72 197.12 717.18 224.99 685.68 241.75 C 699.46 266.85 713.10 292.03 726.87 317.13 C 823.23 317.11 919.59 317.12 1015.95 317.13 C 1015.99 337.57 1015.96 358.01 1015.97 378.45 C 906.33 378.49 796.68 378.46 687.04 378.47 C 649.16 314.54 611.35 250.58 573.47 186.65 C 594.63 186.26 615.80 186.66 636.97 186.45 C 652.84 185.55 668.89 179.65 680.22 168.24 C 689.03 159.44 694.11 147.43 695.71 135.18 C 697.91 119.51 695.43 102.70 686.77 89.25 C 676.56 73.53 658.40 64.16 640.09 62.02 C 593.16 61.82 546.23 62.17 499.31 61.84 C 487.45 41.32 475.19 21.03 463.25 0.56 Z"/>
    <path d="M 803.21 156.63 C 872.18 156.70 941.15 156.79 1010.12 156.76 C 1010.14 178.54 1010.32 200.33 1010.47 222.12 C 932.02 222.13 853.57 222.13 775.11 222.12 C 788.47 202.31 798.30 180.04 803.21 156.63 Z"/>
  </g>

  <!-- Ochre "A" chevron -->
  <g fill="#c9a445">
    <path d="M 315.50 0.51 C 348.92 0.49 382.34 0.48 415.76 0.52 C 489.20 126.57 562.78 252.55 636.19 378.62 C 601.65 378.62 567.11 378.63 532.58 378.62 C 460.25 252.57 387.84 126.56 315.50 0.51 Z"/>
    <path d="M 165.77 378.62 C 219.73 287.69 274.13 197.02 328.20 106.15 C 344.47 134.31 360.58 162.55 376.61 190.85 C 340.04 253.36 303.62 315.96 267.21 378.57 C 233.40 378.70 199.59 378.60 165.77 378.62 Z"/>
  </g>
</svg>
